<?xml version="1.0" standalone="no"?>
<!DOCTYPE svg PUBLIC "-//W3C//DTD SVG 20010904//EN"
 "http://www.w3.org/TR/2001/REC-SVG-20010904/DTD/svg10.dtd">
<svg version="1.0" xmlns="http://www.w3.org/2000/svg"
 width="300.000000pt" height="300.000000pt" viewBox="0 0 300.000000 300.000000"
 preserveAspectRatio="xMidYMid meet">
<metadata>
Created by potrace 1.10, written by Peter Selinger 2001-2011
</metadata>
<g transform="translate(0.000000,300.000000) scale(0.100000,-0.100000)"
fill="#000000" stroke="none">
<path d="M1433 2395 c-32 -32 -35 -40 -30 -73 18 -110 173 -110 193 0 6 34 3
41 -29 73 -48 48 -86 48 -134 0z m85 -19 c3 -22 8 -27 22 -23 22 6 45 -17 35
-33 -3 -5 -17 -10 -31 -10 -19 0 -24 -5 -24 -25 0 -18 -5 -25 -20 -25 -15 0
-20 7 -20 25 0 20 -5 25 -24 25 -14 0 -28 5 -31 10 -10 17 14 38 35 33 16 -4
20 0 20 19 0 47 33 50 38 4z"/>
<path d="M1240 2340 c-19 -19 -20 -33 -20 -503 l0 -482 40 0 40 0 0 227 c0
138 4 229 10 233 5 3 91 6 190 6 99 0 185 -3 190 -6 6 -4 10 -95 10 -233 l0
-227 40 0 40 0 0 482 c0 470 -1 484 -20 503 -15 15 -33 20 -69 20 l-48 0 -6
-46 c-5 -48 -32 -85 -79 -110 -81 -42 -185 17 -195 110 l-6 46 -48 0 c-36 0
-54 -5 -69 -20z m94 -69 c62 -121 186 -153 280 -70 19 16 41 47 49 68 16 39
36 54 61 45 20 -8 26 -37 26 -131 0 -109 -5 -119 -38 -82 l-27 30 -184 0 -184
0 -28 -27 -28 -27 -7 27 c-11 46 1 196 17 207 26 17 39 9 63 -40z m355 -185
c8 -9 11 -47 9 -107 l-3 -94 -195 0 -195 0 -3 94 c-2 60 1 98 9 107 9 11 49
14 189 14 140 0 180 -3 189 -14z m-399 -237 c0 -9 -7 -22 -15 -29 -24 -20 -29
7 -16 79 2 11 30 -36 31 -50z m459 13 c0 -15 -4 -35 -8 -45 -6 -17 -8 -16 -21
7 -11 22 -11 30 0 51 16 30 30 23 29 -13z"/>
<path d="M1350 1985 l0 -65 150 0 150 0 0 65 0 65 -150 0 -150 0 0 -65z m258
3 c-3 -22 -8 -23 -110 -26 l-108 -3 0 26 0 25 111 0 c109 0 110 0 107 -22z"/>
<path d="M981 2123 c-20 -18 -21 -25 -22 -392 l0 -373 105 -2 c103 -1 106 0
106 21 0 20 -6 22 -62 25 l-63 3 -3 89 c-2 62 1 92 9 97 7 4 36 5 66 2 49 -5
53 -4 53 15 0 19 -7 21 -62 24 l-63 3 0 90 0 90 63 3 c55 3 62 5 62 23 0 19
-6 21 -52 19 -29 -2 -59 -2 -66 -1 -10 1 -12 24 -10 94 l3 92 63 3 62 3 0 44
0 45 -84 0 c-65 0 -88 -4 -105 -17z m69 -31 c0 -5 -11 -19 -25 -32 l-25 -23 0
25 c0 15 6 29 13 31 19 8 37 8 37 -1z m-35 -250 c0 -31 -19 -28 -23 4 -3 18 0
25 10 22 7 -3 13 -14 13 -26z m1 -217 c4 -8 3 -23 0 -32 -6 -15 -8 -15 -16 -3
-13 20 -12 50 0 50 6 0 13 -7 16 -15z"/>
<path d="M1830 2095 l0 -45 65 0 65 0 0 -95 c0 -69 -3 -95 -12 -96 -7 -1 -37
-1 -65 1 -48 2 -53 0 -53 -19 0 -19 6 -21 65 -21 l65 0 0 -95 0 -95 -65 0
c-59 0 -65 -2 -65 -20 0 -19 5 -21 63 -18 l62 3 3 -97 3 -98 -66 0 c-61 0 -65
-1 -65 -22 0 -23 2 -23 106 -21 l106 2 -1 373 c-2 442 9 408 -127 408 l-84 0
0 -45z m164 -14 c27 -29 10 -44 -19 -17 -14 13 -25 26 -25 30 0 13 28 5 44
-13z"/>
<path d="M1090 1955 l0 -55 40 0 40 0 0 55 0 55 -40 0 -40 0 0 -55z"/>
<path d="M1830 1955 l0 -55 45 0 45 0 0 55 0 55 -45 0 -45 0 0 -55z"/>
<path d="M1090 1725 l0 -55 40 0 40 0 0 55 0 55 -40 0 -40 0 0 -55z"/>
<path d="M1350 1568 l0 -213 65 0 65 0 0 213 0 212 -65 0 -65 0 0 -212z m88
106 c3 -59 2 -62 -23 -66 -25 -5 -25 -4 -25 57 0 66 5 77 30 73 11 -2 16 -19
18 -64z m-2 -133 c-10 -16 -36 -13 -43 5 -8 22 18 37 36 20 7 -8 10 -19 7 -25z
m4 -90 c0 -36 -4 -50 -17 -55 -27 -11 -37 10 -34 77 1 22 6 27 26 27 23 0 25
-3 25 -49z"/>
<path d="M1520 1568 l0 -213 65 0 65 0 0 213 0 212 -65 0 -65 0 0 -212z m88
104 c3 -61 2 -62 -23 -62 -24 0 -25 2 -25 58 0 63 5 74 30 70 11 -2 16 -19 18
-66z m2 -123 c0 -12 -7 -19 -19 -19 -26 0 -36 17 -21 35 15 18 40 8 40 -16z
m1 -64 c6 -67 0 -85 -26 -85 -23 0 -25 3 -25 50 0 47 2 50 25 50 15 0 26 -6
26 -15z"/>
<path d="M1830 1725 l0 -55 45 0 45 0 0 55 0 55 -45 0 -45 0 0 -55z"/>
<path d="M1090 1495 l0 -55 40 0 40 0 0 55 0 55 -40 0 -40 0 0 -55z"/>
<path d="M1830 1495 l0 -55 45 0 45 0 0 55 0 55 -45 0 -45 0 0 -55z"/>
<path d="M910 1290 c-26 -26 -25 -64 2 -90 21 -20 32 -20 588 -20 556 0 567 0
588 20 27 26 28 64 2 90 -20 20 -33 20 -590 20 -557 0 -570 0 -590 -20z m1144
-26 c12 -5 13 -10 5 -25 -9 -18 -30 -19 -558 -19 -443 0 -551 3 -560 13 -28
35 1 37 555 37 298 0 549 -3 558 -6z"/>
<path d="M1890 1017 l-35 -12 2 -63 1 -62 -25 20 c-36 28 -85 26 -122 -5 -69
-58 -63 -266 8 -305 11 -5 38 -10 60 -10 30 0 44 6 60 25 l20 26 3 -23 c4 -27
23 -32 94 -23 l54 6 0 209 c0 197 -1 210 -19 220 -25 13 -57 12 -101 -3z m64
-33 c14 -5 16 -31 16 -179 0 -162 -1 -174 -19 -180 -11 -3 -30 -3 -44 0 -24 6
-24 7 -19 96 3 64 1 97 -8 114 -10 19 -11 30 -2 50 7 14 12 39 12 56 0 27 5
33 47 48 1 1 8 -2 17 -5z m-149 -115 c4 -5 -1 -26 -10 -45 -19 -41 -18 -129 2
-159 22 -32 16 -45 -20 -45 -47 0 -69 28 -75 95 -6 70 4 121 29 146 20 20 64
26 74 8z m48 -119 c0 -66 -3 -85 -14 -85 -10 0 -15 19 -17 74 -3 80 2 105 19
99 8 -3 12 -34 12 -88z"/>
<path d="M2080 1018 c-28 -15 -38 -52 -20 -74 17 -20 114 -19 134 2 19 19 20
35 3 58 -17 23 -85 31 -117 14z"/>
<path d="M42 979 c-31 -9 -51 -33 -39 -45 3 -3 22 -1 41 6 20 6 45 9 56 5 18
-6 20 -15 20 -118 0 -98 2 -114 23 -144 25 -38 48 -42 76 -12 24 26 28 46 30
161 2 101 11 121 50 116 l26 -3 0 -132 c0 -131 0 -133 -27 -160 -23 -23 -38
-28 -93 -31 -82 -5 -130 14 -165 66 l-25 37 -3 -28 c-5 -37 29 -81 78 -101 55
-22 145 -20 198 4 67 30 82 73 82 236 0 88 -4 134 -12 142 -15 15 -62 15 -108
-1 l-35 -12 -5 -140 c-5 -132 -6 -140 -25 -140 -19 0 -20 8 -23 139 -1 82 -7
145 -14 153 -12 15 -58 16 -106 2z"/>
<path d="M604 901 c-18 -11 -34 -25 -37 -33 -3 -8 -9 -3 -16 15 -9 23 -16 27
-50 27 -22 0 -52 -5 -66 -12 l-26 -11 3 -151 3 -151 50 -3 c28 -2 61 1 74 6
23 8 24 12 22 94 -2 98 7 113 63 97 66 -19 79 -9 89 69 9 70 -41 94 -109 53z
m67 -37 c23 -28 -1 -50 -51 -46 -33 3 -47 -1 -66 -19 -21 -19 -24 -32 -24 -90
0 -73 -12 -93 -52 -87 -22 3 -23 7 -26 112 -2 71 1 113 9 122 15 18 54 18 83
-2 22 -14 27 -13 62 5 46 25 48 25 65 5z"/>
<path d="M944 910 c-12 -5 -29 -18 -37 -30 l-15 -22 -4 23 c-3 21 -9 24 -48
27 -25 1 -55 -3 -68 -10 -23 -13 -23 -17 -25 -163 l-2 -150 35 -3 c19 -2 54
-1 77 3 l43 6 0 125 c0 96 3 125 13 122 8 -3 13 -41 15 -131 l3 -127 52 0
c101 0 97 -5 97 137 0 95 3 124 13 121 8 -3 14 -42 17 -129 l5 -124 50 -3 c28
-2 61 1 74 6 23 8 23 11 22 136 -1 70 -7 138 -13 151 -22 49 -109 57 -160 16
-22 -19 -23 -19 -45 5 -23 25 -60 30 -99 14z m81 -46 c24 -15 25 -21 25 -111
0 -105 -9 -133 -45 -133 -34 0 -39 13 -46 115 -3 50 -9 100 -14 112 -5 16 -2
22 12 26 33 9 43 7 68 -9z m173 8 c19 -13 32 -70 32 -145 0 -80 -11 -107 -45
-107 -35 0 -45 27 -45 119 0 48 -5 90 -12 101 -11 17 -10 22 2 30 18 12 51 13
68 2z m-335 -9 c3 -5 2 -60 -2 -123 l-6 -115 -29 -3 c-16 -2 -32 2 -37 10 -14
21 -11 212 3 226 13 13 64 16 71 5z"/>
<path d="M1415 911 c-84 -20 -119 -77 -113 -182 4 -76 25 -110 85 -135 39 -17
158 -18 202 -3 35 12 40 33 16 79 -18 35 -14 35 -75 13 -40 -14 -51 -15 -64
-4 -24 20 -19 31 12 31 44 0 105 20 130 43 26 24 30 91 7 124 -24 35 -125 52
-200 34z m45 -39 c0 -5 -9 -17 -20 -27 -22 -20 -26 -65 -9 -96 7 -13 7 -25 1
-32 -13 -17 2 -53 29 -67 12 -7 38 -10 60 -6 37 6 60 -6 38 -19 -18 -12 -127
-8 -159 5 -16 7 -36 23 -45 37 -23 34 -23 125 -1 159 23 34 106 70 106 46z
m115 -12 c21 -17 19 -70 -2 -86 -33 -25 -53 -17 -53 20 0 23 -8 42 -27 61
l-28 28 47 -5 c27 -3 55 -11 63 -18z m-87 -52 c2 -15 -5 -33 -15 -44 -17 -17
-18 -17 -21 15 -2 18 -1 40 2 48 9 22 31 10 34 -19z"/>
<path d="M2268 898 c-16 -5 -28 -15 -28 -21 1 -7 20 -39 44 -71 l43 -59 -50
-69 c-33 -45 -47 -72 -40 -79 13 -13 105 -23 137 -15 20 5 26 14 32 51 8 56
19 58 28 5 5 -31 12 -43 32 -50 32 -13 114 -13 134 0 16 10 19 6 -44 94 l-38
56 46 71 c35 55 43 75 35 86 -13 15 -96 18 -133 3 -23 -8 -26 -15 -26 -55 0
-54 -15 -59 -25 -8 -12 65 -20 73 -73 72 -26 0 -59 -5 -74 -11z m117 -66 c28
-53 59 -55 82 -5 15 31 24 39 52 41 l33 3 -31 -57 c-38 -70 -38 -84 -6 -132
35 -51 33 -66 -7 -58 -18 4 -35 11 -37 17 -2 6 -13 22 -26 37 -23 26 -23 26
-44 8 -11 -10 -23 -27 -26 -37 -7 -20 -46 -35 -70 -26 -11 5 -7 17 20 62 37
62 36 77 -5 135 -28 39 -25 50 13 50 27 0 35 -6 52 -38z"/>
<path d="M2663 903 c-44 -9 -43 -26 3 -87 24 -33 44 -63 44 -68 0 -4 -20 -36
-45 -70 -25 -33 -44 -66 -42 -72 5 -14 42 -24 97 -25 58 -1 66 5 75 57 9 53
21 54 29 2 7 -47 30 -60 105 -60 75 0 80 16 26 89 -25 33 -45 65 -45 71 0 5
18 37 40 72 52 79 50 92 -16 96 -72 4 -104 -10 -104 -47 0 -63 -13 -68 -30
-11 l-16 55 -49 1 c-28 1 -60 0 -72 -3z m112 -74 c30 -47 52 -48 75 -4 18 37
29 45 58 45 28 0 28 -15 -3 -65 -31 -50 -31 -69 0 -124 14 -23 25 -47 25 -52
0 -18 -51 -8 -68 13 -9 11 -26 30 -36 41 -19 20 -19 20 -43 -9 -13 -16 -28
-35 -34 -41 -11 -14 -55 -17 -63 -5 -3 5 8 28 25 53 35 54 36 72 4 128 -32 55
-31 61 5 61 24 0 35 -8 55 -41z"/>
<path d="M2077 888 l-28 -10 3 -146 3 -147 40 -3 c21 -2 54 -1 72 3 l33 6 0
154 0 155 -47 -1 c-27 0 -60 -5 -76 -11z m84 -37 c1 -3 3 -52 4 -108 4 -110
-3 -127 -47 -121 -22 3 -23 7 -26 116 -3 109 -2 113 20 121 23 8 47 5 49 -8z"/>
</g>
</svg>
